<svg xmlns="http://www.w3.org/2000/svg" width="20" height="19.541"><path d="M5.153 16.952a1.295 1.295 0 11-1.294 1.294 1.3 1.3 0 011.294-1.294zm11.28 0a1.295 1.295 0 11-1.294 1.294 1.3 1.3 0 011.295-1.294zM.878.009l2.08.36a.753.753 0 01.619.677l.235 2.8h14.391a2.092 2.092 0 011.775 2.37l-.949 6.584a2.562 2.562 0 01-2.519 2.185H5.585a2.562 2.562 0 01-2.539-2.343L2.13 1.748l-1.507-.26A.752.752 0 01.01.62.759.759 0 01.878.009zm3.607 5.339h-.547l.6 7.172a1.042 1.042 0 001.046.966h10.92a1.055 1.055 0 001.04-.9l.95-6.559a.587.587 0 00-.112-.438.58.58 0 00-.388-.231H4.485zm10.413 2.2a.75.75 0 010 1.5h-2.772a.75.75 0 010-1.5z" fill="#eac666" fill-rule="evenodd" data-name="Iconly/Light-Outline/Buy"/></svg>